<?xml version="1.0" encoding="utf-8" standalone="no"?>
<!DOCTYPE svg PUBLIC "-//W3C//DTD SVG 1.1//EN"
  "http://www.w3.org/Graphics/SVG/1.1/DTD/svg11.dtd">
<svg xmlns:xlink="http://www.w3.org/1999/xlink" width="420.475312pt" height="348.649688pt" viewBox="0 0 420.475312 348.649688" xmlns="http://www.w3.org/2000/svg" version="1.1">
 <metadata>
  <rdf:RDF xmlns:dc="http://purl.org/dc/elements/1.1/" xmlns:cc="http://creativecommons.org/ns#" xmlns:rdf="http://www.w3.org/1999/02/22-rdf-syntax-ns#">
   <cc:Work>
    <dc:type rdf:resource="http://purl.org/dc/dcmitype/StillImage"/>
    <dc:date>2025-11-05T23:33:14.654878</dc:date>
    <dc:format>image/svg+xml</dc:format>
    <dc:creator>
     <cc:Agent>
      <dc:title>Matplotlib v3.10.7, https://matplotlib.org/</dc:title>
     </cc:Agent>
    </dc:creator>
   </cc:Work>
  </rdf:RDF>
 </metadata>
 <defs>
  <style type="text/css">*{stroke-linejoin: round; stroke-linecap: butt}</style>
 </defs>
 <g id="figure_1">
  <g id="patch_1">
   <path d="M 0 348.649688 
L 420.475312 348.649688 
L 420.475312 0 
L 0 0 
z
" style="fill: #ffffff"/>
  </g>
  <g id="axes_1">
   <g id="patch_2">
    <path d="M 36.465313 307.285 
L 413.275312 307.285 
L 413.275312 38.045 
L 36.465313 38.045 
z
" style="fill: #ffffff"/>
   </g>
   <g id="PathCollection_1">
    <defs>
     <path id="mb740275569" d="M 0 3 
C 0.795609 3 1.55874 2.683901 2.12132 2.12132 
C 2.683901 1.55874 3 0.795609 3 0 
C 3 -0.795609 2.683901 -1.55874 2.12132 -2.12132 
C 1.55874 -2.683901 0.795609 -3 0 -3 
C -0.795609 -3 -1.55874 -2.683901 -2.12132 -2.12132 
C -2.683901 -1.55874 -3 -0.795609 -3 0 
C -3 0.795609 -2.683901 1.55874 -2.12132 2.12132 
C -1.55874 2.683901 -0.795609 3 0 3 
z
" style="stroke: #2f2f2f; stroke-opacity: 0.85; stroke-width: 0.6"/>
    </defs>
    <g clip-path="url(#pab6608dd30)">
     <use xlink:href="#mb740275569" x="360.228077" y="123.737934" style="fill: #4c72b0; fill-opacity: 0.85; stroke: #2f2f2f; stroke-opacity: 0.85; stroke-width: 0.6"/>
     <use xlink:href="#mb740275569" x="263.352013" y="220.456917" style="fill: #4c72b0; fill-opacity: 0.85; stroke: #2f2f2f; stroke-opacity: 0.85; stroke-width: 0.6"/>
     <use xlink:href="#mb740275569" x="304.448008" y="192.96425" style="fill: #4c72b0; fill-opacity: 0.85; stroke: #2f2f2f; stroke-opacity: 0.85; stroke-width: 0.6"/>
     <use xlink:href="#mb740275569" x="394.097581" y="68.499933" style="fill: #4c72b0; fill-opacity: 0.85; stroke: #2f2f2f; stroke-opacity: 0.85; stroke-width: 0.6"/>
     <use xlink:href="#mb740275569" x="367.579973" y="104.181791" style="fill: #4c72b0; fill-opacity: 0.85; stroke: #2f2f2f; stroke-opacity: 0.85; stroke-width: 0.6"/>
     <use xlink:href="#mb740275569" x="165.514223" y="243.744487" style="fill: #4c72b0; fill-opacity: 0.85; stroke: #2f2f2f; stroke-opacity: 0.85; stroke-width: 0.6"/>
     <use xlink:href="#mb740275569" x="302.413059" y="189.841187" style="fill: #4c72b0; fill-opacity: 0.85; stroke: #2f2f2f; stroke-opacity: 0.85; stroke-width: 0.6"/>
     <use xlink:href="#mb740275569" x="224.178514" y="241.04737" style="fill: #4c72b0; fill-opacity: 0.85; stroke: #2f2f2f; stroke-opacity: 0.85; stroke-width: 0.6"/>
     <use xlink:href="#mb740275569" x="227.597731" y="248.380531" style="fill: #4c72b0; fill-opacity: 0.85; stroke: #2f2f2f; stroke-opacity: 0.85; stroke-width: 0.6"/>
     <use xlink:href="#mb740275569" x="264.093648" y="226.760544" style="fill: #4c72b0; fill-opacity: 0.85; stroke: #2f2f2f; stroke-opacity: 0.85; stroke-width: 0.6"/>
     <use xlink:href="#mb740275569" x="245.160525" y="241.007967" style="fill: #4c72b0; fill-opacity: 0.85; stroke: #2f2f2f; stroke-opacity: 0.85; stroke-width: 0.6"/>
     <use xlink:href="#mb740275569" x="338.2248" y="150.900783" style="fill: #4c72b0; fill-opacity: 0.85; stroke: #2f2f2f; stroke-opacity: 0.85; stroke-width: 0.6"/>
     <use xlink:href="#mb740275569" x="288.984981" y="210.910568" style="fill: #4c72b0; fill-opacity: 0.85; stroke: #2f2f2f; stroke-opacity: 0.85; stroke-width: 0.6"/>
     <use xlink:href="#mb740275569" x="243.57171" y="251.396941" style="fill: #4c72b0; fill-opacity: 0.85; stroke: #2f2f2f; stroke-opacity: 0.85; stroke-width: 0.6"/>
     <use xlink:href="#mb740275569" x="266.456407" y="220.198539" style="fill: #4c72b0; fill-opacity: 0.85; stroke: #2f2f2f; stroke-opacity: 0.85; stroke-width: 0.6"/>
     <use xlink:href="#mb740275569" x="258.629803" y="230.746091" style="fill: #4c72b0; fill-opacity: 0.85; stroke: #2f2f2f; stroke-opacity: 0.85; stroke-width: 0.6"/>
     <use xlink:href="#mb740275569" x="341.052154" y="158.575506" style="fill: #4c72b0; fill-opacity: 0.85; stroke: #2f2f2f; stroke-opacity: 0.85; stroke-width: 0.6"/>
     <use xlink:href="#mb740275569" x="220.35708" y="240.78451" style="fill: #4c72b0; fill-opacity: 0.85; stroke: #2f2f2f; stroke-opacity: 0.85; stroke-width: 0.6"/>
     <use xlink:href="#mb740275569" x="257.166135" y="236.26684" style="fill: #4c72b0; fill-opacity: 0.85; stroke: #2f2f2f; stroke-opacity: 0.85; stroke-width: 0.6"/>
     <use xlink:href="#mb740275569" x="174.263721" y="248.55857" style="fill: #4c72b0; fill-opacity: 0.85; stroke: #2f2f2f; stroke-opacity: 0.85; stroke-width: 0.6"/>
     <use xlink:href="#mb740275569" x="53.59304" y="162.367015" style="fill: #4c72b0; fill-opacity: 0.85; stroke: #2f2f2f; stroke-opacity: 0.85; stroke-width: 0.6"/>
     <use xlink:href="#mb740275569" x="281.355111" y="209.055285" style="fill: #4c72b0; fill-opacity: 0.85; stroke: #2f2f2f; stroke-opacity: 0.85; stroke-width: 0.6"/>
     <use xlink:href="#mb740275569" x="296.32927" y="186.216902" style="fill: #4c72b0; fill-opacity: 0.85; stroke: #2f2f2f; stroke-opacity: 0.85; stroke-width: 0.6"/>
     <use xlink:href="#mb740275569" x="182.214045" y="260.920414" style="fill: #4c72b0; fill-opacity: 0.85; stroke: #2f2f2f; stroke-opacity: 0.85; stroke-width: 0.6"/>
     <use xlink:href="#mb740275569" x="396.147585" y="50.283182" style="fill: #4c72b0; fill-opacity: 0.85; stroke: #2f2f2f; stroke-opacity: 0.85; stroke-width: 0.6"/>
     <use xlink:href="#mb740275569" x="131.627166" y="241.955797" style="fill: #4c72b0; fill-opacity: 0.85; stroke: #2f2f2f; stroke-opacity: 0.85; stroke-width: 0.6"/>
     <use xlink:href="#mb740275569" x="238.17944" y="246.211257" style="fill: #4c72b0; fill-opacity: 0.85; stroke: #2f2f2f; stroke-opacity: 0.85; stroke-width: 0.6"/>
     <use xlink:href="#mb740275569" x="221.633784" y="249.865864" style="fill: #4c72b0; fill-opacity: 0.85; stroke: #2f2f2f; stroke-opacity: 0.85; stroke-width: 0.6"/>
     <use xlink:href="#mb740275569" x="343.800982" y="142.759134" style="fill: #4c72b0; fill-opacity: 0.85; stroke: #2f2f2f; stroke-opacity: 0.85; stroke-width: 0.6"/>
     <use xlink:href="#mb740275569" x="339.296296" y="145.664124" style="fill: #4c72b0; fill-opacity: 0.85; stroke: #2f2f2f; stroke-opacity: 0.85; stroke-width: 0.6"/>
     <use xlink:href="#mb740275569" x="245.935015" y="245.080821" style="fill: #4c72b0; fill-opacity: 0.85; stroke: #2f2f2f; stroke-opacity: 0.85; stroke-width: 0.6"/>
     <use xlink:href="#mb740275569" x="261.789753" y="216.84189" style="fill: #4c72b0; fill-opacity: 0.85; stroke: #2f2f2f; stroke-opacity: 0.85; stroke-width: 0.6"/>
     <use xlink:href="#mb740275569" x="171.870757" y="244.486312" style="fill: #4c72b0; fill-opacity: 0.85; stroke: #2f2f2f; stroke-opacity: 0.85; stroke-width: 0.6"/>
     <use xlink:href="#mb740275569" x="94.235336" y="224.556059" style="fill: #4c72b0; fill-opacity: 0.85; stroke: #2f2f2f; stroke-opacity: 0.85; stroke-width: 0.6"/>
     <use xlink:href="#mb740275569" x="210.217419" y="233.99626" style="fill: #4c72b0; fill-opacity: 0.85; stroke: #2f2f2f; stroke-opacity: 0.85; stroke-width: 0.6"/>
     <use xlink:href="#mb740275569" x="246.034566" y="217.211934" style="fill: #4c72b0; fill-opacity: 0.85; stroke: #2f2f2f; stroke-opacity: 0.85; stroke-width: 0.6"/>
     <use xlink:href="#mb740275569" x="322.315532" y="157.366542" style="fill: #4c72b0; fill-opacity: 0.85; stroke: #2f2f2f; stroke-opacity: 0.85; stroke-width: 0.6"/>
     <use xlink:href="#mb740275569" x="320.333055" y="172.10143" style="fill: #4c72b0; fill-opacity: 0.85; stroke: #2f2f2f; stroke-opacity: 0.85; stroke-width: 0.6"/>
     <use xlink:href="#mb740275569" x="207.417837" y="257.786208" style="fill: #4c72b0; fill-opacity: 0.85; stroke: #2f2f2f; stroke-opacity: 0.85; stroke-width: 0.6"/>
     <use xlink:href="#mb740275569" x="213.457008" y="237.230504" style="fill: #4c72b0; fill-opacity: 0.85; stroke: #2f2f2f; stroke-opacity: 0.85; stroke-width: 0.6"/>
     <use xlink:href="#mb740275569" x="160.451625" y="250.179321" style="fill: #4c72b0; fill-opacity: 0.85; stroke: #2f2f2f; stroke-opacity: 0.85; stroke-width: 0.6"/>
     <use xlink:href="#mb740275569" x="134.066853" y="225.826547" style="fill: #4c72b0; fill-opacity: 0.85; stroke: #2f2f2f; stroke-opacity: 0.85; stroke-width: 0.6"/>
     <use xlink:href="#mb740275569" x="113.734651" y="223.382756" style="fill: #4c72b0; fill-opacity: 0.85; stroke: #2f2f2f; stroke-opacity: 0.85; stroke-width: 0.6"/>
     <use xlink:href="#mb740275569" x="373.490818" y="85.311225" style="fill: #4c72b0; fill-opacity: 0.85; stroke: #2f2f2f; stroke-opacity: 0.85; stroke-width: 0.6"/>
     <use xlink:href="#mb740275569" x="198.729191" y="246.030211" style="fill: #4c72b0; fill-opacity: 0.85; stroke: #2f2f2f; stroke-opacity: 0.85; stroke-width: 0.6"/>
     <use xlink:href="#mb740275569" x="203.813296" y="242.220737" style="fill: #4c72b0; fill-opacity: 0.85; stroke: #2f2f2f; stroke-opacity: 0.85; stroke-width: 0.6"/>
     <use xlink:href="#mb740275569" x="145.944502" y="241.928513" style="fill: #4c72b0; fill-opacity: 0.85; stroke: #2f2f2f; stroke-opacity: 0.85; stroke-width: 0.6"/>
     <use xlink:href="#mb740275569" x="290.153597" y="186.21914" style="fill: #4c72b0; fill-opacity: 0.85; stroke: #2f2f2f; stroke-opacity: 0.85; stroke-width: 0.6"/>
     <use xlink:href="#mb740275569" x="120.295768" y="228.291577" style="fill: #4c72b0; fill-opacity: 0.85; stroke: #2f2f2f; stroke-opacity: 0.85; stroke-width: 0.6"/>
     <use xlink:href="#mb740275569" x="219.818537" y="241.494641" style="fill: #4c72b0; fill-opacity: 0.85; stroke: #2f2f2f; stroke-opacity: 0.85; stroke-width: 0.6"/>
    </g>
   </g>
   <g id="matplotlib.axis_1">
    <g id="xtick_1">
     <g id="line2d_1">
      <defs>
       <path id="md8c3c9e8ba" d="M 0 0 
L 0 3.5 
" style="stroke: #000000; stroke-width: 0.8"/>
      </defs>
      <g>
       <use xlink:href="#md8c3c9e8ba" x="92.871328" y="307.285" style="stroke: #000000; stroke-width: 0.8"/>
      </g>
     </g>
     <g id="text_1">
      <!-- −2 -->
      <g transform="translate(86.48789 322.6175) scale(0.12 -0.12)">
       <defs>
        <path id="TimesNewRomanPSMT-2212" d="M 3484 2000 
L 116 2000 
L 116 2256 
L 3484 2256 
L 3484 2000 
z
" transform="scale(0.015625)"/>
        <path id="TimesNewRomanPSMT-32" d="M 2934 816 
L 2638 0 
L 138 0 
L 138 116 
Q 1241 1122 1691 1759 
Q 2141 2397 2141 2925 
Q 2141 3328 1894 3587 
Q 1647 3847 1303 3847 
Q 991 3847 742 3664 
Q 494 3481 375 3128 
L 259 3128 
Q 338 3706 661 4015 
Q 984 4325 1469 4325 
Q 1984 4325 2329 3994 
Q 2675 3663 2675 3213 
Q 2675 2891 2525 2569 
Q 2294 2063 1775 1497 
Q 997 647 803 472 
L 1909 472 
Q 2247 472 2383 497 
Q 2519 522 2628 598 
Q 2738 675 2819 816 
L 2934 816 
z
" transform="scale(0.015625)"/>
       </defs>
       <use xlink:href="#TimesNewRomanPSMT-2212"/>
       <use xlink:href="#TimesNewRomanPSMT-32" transform="translate(56.396484 0)"/>
      </g>
     </g>
    </g>
    <g id="xtick_2">
     <g id="line2d_2">
      <g>
       <use xlink:href="#md8c3c9e8ba" x="163.900294" y="307.285" style="stroke: #000000; stroke-width: 0.8"/>
      </g>
     </g>
     <g id="text_2">
      <!-- −1 -->
      <g transform="translate(157.516856 322.6175) scale(0.12 -0.12)">
       <defs>
        <path id="TimesNewRomanPSMT-31" d="M 750 3822 
L 1781 4325 
L 1884 4325 
L 1884 747 
Q 1884 391 1914 303 
Q 1944 216 2037 169 
Q 2131 122 2419 116 
L 2419 0 
L 825 0 
L 825 116 
Q 1125 122 1212 167 
Q 1300 213 1334 289 
Q 1369 366 1369 747 
L 1369 3034 
Q 1369 3497 1338 3628 
Q 1316 3728 1258 3775 
Q 1200 3822 1119 3822 
Q 1003 3822 797 3725 
L 750 3822 
z
" transform="scale(0.015625)"/>
       </defs>
       <use xlink:href="#TimesNewRomanPSMT-2212"/>
       <use xlink:href="#TimesNewRomanPSMT-31" transform="translate(56.396484 0)"/>
      </g>
     </g>
    </g>
    <g id="xtick_3">
     <g id="line2d_3">
      <g>
       <use xlink:href="#md8c3c9e8ba" x="234.92926" y="307.285" style="stroke: #000000; stroke-width: 0.8"/>
      </g>
     </g>
     <g id="text_3">
      <!-- 0 -->
      <g transform="translate(231.92926 322.6175) scale(0.12 -0.12)">
       <defs>
        <path id="TimesNewRomanPSMT-30" d="M 231 2094 
Q 231 2819 450 3342 
Q 669 3866 1031 4122 
Q 1313 4325 1613 4325 
Q 2100 4325 2488 3828 
Q 2972 3213 2972 2159 
Q 2972 1422 2759 906 
Q 2547 391 2217 158 
Q 1888 -75 1581 -75 
Q 975 -75 572 641 
Q 231 1244 231 2094 
z
M 844 2016 
Q 844 1141 1059 588 
Q 1238 122 1591 122 
Q 1759 122 1940 273 
Q 2122 425 2216 781 
Q 2359 1319 2359 2297 
Q 2359 3022 2209 3506 
Q 2097 3866 1919 4016 
Q 1791 4119 1609 4119 
Q 1397 4119 1231 3928 
Q 1006 3669 925 3112 
Q 844 2556 844 2016 
z
" transform="scale(0.015625)"/>
       </defs>
       <use xlink:href="#TimesNewRomanPSMT-30"/>
      </g>
     </g>
    </g>
    <g id="xtick_4">
     <g id="line2d_4">
      <g>
       <use xlink:href="#md8c3c9e8ba" x="305.958226" y="307.285" style="stroke: #000000; stroke-width: 0.8"/>
      </g>
     </g>
     <g id="text_4">
      <!-- 1 -->
      <g transform="translate(302.958226 322.6175) scale(0.12 -0.12)">
       <use xlink:href="#TimesNewRomanPSMT-31"/>
      </g>
     </g>
    </g>
    <g id="xtick_5">
     <g id="line2d_5">
      <g>
       <use xlink:href="#md8c3c9e8ba" x="376.987192" y="307.285" style="stroke: #000000; stroke-width: 0.8"/>
      </g>
     </g>
     <g id="text_5">
      <!-- 2 -->
      <g transform="translate(373.987192 322.6175) scale(0.12 -0.12)">
       <use xlink:href="#TimesNewRomanPSMT-32"/>
      </g>
     </g>
    </g>
    <g id="text_6">
     <!-- x -->
     <g transform="translate(221.370313 338.455) scale(0.14 -0.14)">
      <defs>
       <path id="TimesNewRomanPS-BoldMT-78" d="M 1944 1791 
L 2450 828 
Q 2713 325 2866 191 
Q 2950 119 3097 113 
L 3097 0 
L 1469 0 
L 1469 113 
Q 1659 128 1704 162 
Q 1750 197 1750 256 
Q 1750 344 1650 531 
L 1397 1006 
L 1181 691 
Q 1034 475 1016 434 
Q 991 375 991 328 
Q 991 256 1020 207 
Q 1050 159 1101 136 
Q 1153 113 1291 113 
L 1291 0 
L 147 0 
L 147 113 
Q 359 113 536 230 
Q 713 347 1050 844 
L 1291 1200 
L 788 2131 
Q 541 2588 419 2691 
Q 297 2794 147 2806 
L 147 2922 
L 1766 2922 
L 1766 2806 
L 1681 2803 
L 1519 2747 
Q 1494 2725 1494 2675 
Q 1494 2628 1509 2578 
Q 1519 2556 1597 2409 
L 1825 1984 
L 1944 2153 
Q 2194 2497 2194 2634 
Q 2194 2700 2139 2745 
Q 2084 2791 1944 2806 
L 1944 2922 
L 2978 2922 
L 2978 2806 
Q 2788 2800 2622 2689 
Q 2456 2578 2250 2259 
L 1944 1791 
z
" transform="scale(0.015625)"/>
      </defs>
      <use xlink:href="#TimesNewRomanPS-BoldMT-78"/>
     </g>
    </g>
   </g>
   <g id="matplotlib.axis_2">
    <g id="ytick_1">
     <g id="line2d_6">
      <defs>
       <path id="me7a294e2db" d="M 0 0 
L -3.5 0 
" style="stroke: #000000; stroke-width: 0.8"/>
      </defs>
      <g>
       <use xlink:href="#me7a294e2db" x="36.465313" y="300.313593" style="stroke: #000000; stroke-width: 0.8"/>
      </g>
     </g>
     <g id="text_7">
      <!-- 0 -->
      <g transform="translate(23.465313 304.479843) scale(0.12 -0.12)">
       <use xlink:href="#TimesNewRomanPSMT-30"/>
      </g>
     </g>
    </g>
    <g id="ytick_2">
     <g id="line2d_7">
      <g>
       <use xlink:href="#me7a294e2db" x="36.465313" y="270.022654" style="stroke: #000000; stroke-width: 0.8"/>
      </g>
     </g>
     <g id="text_8">
      <!-- 1 -->
      <g transform="translate(23.465313 274.188904) scale(0.12 -0.12)">
       <use xlink:href="#TimesNewRomanPSMT-31"/>
      </g>
     </g>
    </g>
    <g id="ytick_3">
     <g id="line2d_8">
      <g>
       <use xlink:href="#me7a294e2db" x="36.465313" y="239.731716" style="stroke: #000000; stroke-width: 0.8"/>
      </g>
     </g>
     <g id="text_9">
      <!-- 2 -->
      <g transform="translate(23.465313 243.897966) scale(0.12 -0.12)">
       <use xlink:href="#TimesNewRomanPSMT-32"/>
      </g>
     </g>
    </g>
    <g id="ytick_4">
     <g id="line2d_9">
      <g>
       <use xlink:href="#me7a294e2db" x="36.465313" y="209.440777" style="stroke: #000000; stroke-width: 0.8"/>
      </g>
     </g>
     <g id="text_10">
      <!-- 3 -->
      <g transform="translate(23.465313 213.607027) scale(0.12 -0.12)">
       <defs>
        <path id="TimesNewRomanPSMT-33" d="M 325 3431 
Q 506 3859 782 4092 
Q 1059 4325 1472 4325 
Q 1981 4325 2253 3994 
Q 2459 3747 2459 3466 
Q 2459 3003 1878 2509 
Q 2269 2356 2469 2072 
Q 2669 1788 2669 1403 
Q 2669 853 2319 450 
Q 1863 -75 997 -75 
Q 569 -75 414 31 
Q 259 138 259 259 
Q 259 350 332 419 
Q 406 488 509 488 
Q 588 488 669 463 
Q 722 447 909 348 
Q 1097 250 1169 231 
Q 1284 197 1416 197 
Q 1734 197 1970 444 
Q 2206 691 2206 1028 
Q 2206 1275 2097 1509 
Q 2016 1684 1919 1775 
Q 1784 1900 1550 2001 
Q 1316 2103 1072 2103 
L 972 2103 
L 972 2197 
Q 1219 2228 1467 2375 
Q 1716 2522 1828 2728 
Q 1941 2934 1941 3181 
Q 1941 3503 1739 3701 
Q 1538 3900 1238 3900 
Q 753 3900 428 3381 
L 325 3431 
z
" transform="scale(0.015625)"/>
       </defs>
       <use xlink:href="#TimesNewRomanPSMT-33"/>
      </g>
     </g>
    </g>
    <g id="ytick_5">
     <g id="line2d_10">
      <g>
       <use xlink:href="#me7a294e2db" x="36.465313" y="179.149839" style="stroke: #000000; stroke-width: 0.8"/>
      </g>
     </g>
     <g id="text_11">
      <!-- 4 -->
      <g transform="translate(23.465313 183.316089) scale(0.12 -0.12)">
       <defs>
        <path id="TimesNewRomanPSMT-34" d="M 2978 1563 
L 2978 1119 
L 2409 1119 
L 2409 0 
L 1894 0 
L 1894 1119 
L 100 1119 
L 100 1519 
L 2066 4325 
L 2409 4325 
L 2409 1563 
L 2978 1563 
z
M 1894 1563 
L 1894 3666 
L 406 1563 
L 1894 1563 
z
" transform="scale(0.015625)"/>
       </defs>
       <use xlink:href="#TimesNewRomanPSMT-34"/>
      </g>
     </g>
    </g>
    <g id="ytick_6">
     <g id="line2d_11">
      <g>
       <use xlink:href="#me7a294e2db" x="36.465313" y="148.8589" style="stroke: #000000; stroke-width: 0.8"/>
      </g>
     </g>
     <g id="text_12">
      <!-- 5 -->
      <g transform="translate(23.465313 153.02515) scale(0.12 -0.12)">
       <defs>
        <path id="TimesNewRomanPSMT-35" d="M 2778 4238 
L 2534 3706 
L 1259 3706 
L 981 3138 
Q 1809 3016 2294 2522 
Q 2709 2097 2709 1522 
Q 2709 1188 2573 903 
Q 2438 619 2231 419 
Q 2025 219 1772 97 
Q 1413 -75 1034 -75 
Q 653 -75 479 54 
Q 306 184 306 341 
Q 306 428 378 495 
Q 450 563 559 563 
Q 641 563 702 538 
Q 763 513 909 409 
Q 1144 247 1384 247 
Q 1750 247 2026 523 
Q 2303 800 2303 1197 
Q 2303 1581 2056 1914 
Q 1809 2247 1375 2428 
Q 1034 2569 447 2591 
L 1259 4238 
L 2778 4238 
z
" transform="scale(0.015625)"/>
       </defs>
       <use xlink:href="#TimesNewRomanPSMT-35"/>
      </g>
     </g>
    </g>
    <g id="ytick_7">
     <g id="line2d_12">
      <g>
       <use xlink:href="#me7a294e2db" x="36.465313" y="118.567962" style="stroke: #000000; stroke-width: 0.8"/>
      </g>
     </g>
     <g id="text_13">
      <!-- 6 -->
      <g transform="translate(23.465313 122.734212) scale(0.12 -0.12)">
       <defs>
        <path id="TimesNewRomanPSMT-36" d="M 2869 4325 
L 2869 4209 
Q 2456 4169 2195 4045 
Q 1934 3922 1679 3669 
Q 1425 3416 1258 3105 
Q 1091 2794 978 2366 
Q 1428 2675 1881 2675 
Q 2316 2675 2634 2325 
Q 2953 1975 2953 1425 
Q 2953 894 2631 456 
Q 2244 -75 1606 -75 
Q 1172 -75 869 213 
Q 275 772 275 1663 
Q 275 2231 503 2743 
Q 731 3256 1154 3653 
Q 1578 4050 1965 4187 
Q 2353 4325 2688 4325 
L 2869 4325 
z
M 925 2138 
Q 869 1716 869 1456 
Q 869 1156 980 804 
Q 1091 453 1309 247 
Q 1469 100 1697 100 
Q 1969 100 2183 356 
Q 2397 613 2397 1088 
Q 2397 1622 2184 2012 
Q 1972 2403 1581 2403 
Q 1463 2403 1327 2353 
Q 1191 2303 925 2138 
z
" transform="scale(0.015625)"/>
       </defs>
       <use xlink:href="#TimesNewRomanPSMT-36"/>
      </g>
     </g>
    </g>
    <g id="ytick_8">
     <g id="line2d_13">
      <g>
       <use xlink:href="#me7a294e2db" x="36.465313" y="88.277023" style="stroke: #000000; stroke-width: 0.8"/>
      </g>
     </g>
     <g id="text_14">
      <!-- 7 -->
      <g transform="translate(23.465313 92.443273) scale(0.12 -0.12)">
       <defs>
        <path id="TimesNewRomanPSMT-37" d="M 644 4238 
L 2916 4238 
L 2916 4119 
L 1503 -88 
L 1153 -88 
L 2419 3728 
L 1253 3728 
Q 900 3728 750 3644 
Q 488 3500 328 3200 
L 238 3234 
L 644 4238 
z
" transform="scale(0.015625)"/>
       </defs>
       <use xlink:href="#TimesNewRomanPSMT-37"/>
      </g>
     </g>
    </g>
    <g id="ytick_9">
     <g id="line2d_14">
      <g>
       <use xlink:href="#me7a294e2db" x="36.465313" y="57.986084" style="stroke: #000000; stroke-width: 0.8"/>
      </g>
     </g>
     <g id="text_15">
      <!-- 8 -->
      <g transform="translate(23.465313 62.152334) scale(0.12 -0.12)">
       <defs>
        <path id="TimesNewRomanPSMT-38" d="M 1228 2134 
Q 725 2547 579 2797 
Q 434 3047 434 3316 
Q 434 3728 753 4026 
Q 1072 4325 1600 4325 
Q 2113 4325 2425 4047 
Q 2738 3769 2738 3413 
Q 2738 3175 2569 2928 
Q 2400 2681 1866 2347 
Q 2416 1922 2594 1678 
Q 2831 1359 2831 1006 
Q 2831 559 2490 242 
Q 2150 -75 1597 -75 
Q 994 -75 656 303 
Q 388 606 388 966 
Q 388 1247 577 1523 
Q 766 1800 1228 2134 
z
M 1719 2469 
Q 2094 2806 2194 3001 
Q 2294 3197 2294 3444 
Q 2294 3772 2109 3958 
Q 1925 4144 1606 4144 
Q 1288 4144 1088 3959 
Q 888 3775 888 3528 
Q 888 3366 970 3203 
Q 1053 3041 1206 2894 
L 1719 2469 
z
M 1375 2016 
Q 1116 1797 991 1539 
Q 866 1281 866 981 
Q 866 578 1086 336 
Q 1306 94 1647 94 
Q 1984 94 2187 284 
Q 2391 475 2391 747 
Q 2391 972 2272 1150 
Q 2050 1481 1375 2016 
z
" transform="scale(0.015625)"/>
       </defs>
       <use xlink:href="#TimesNewRomanPSMT-38"/>
      </g>
     </g>
    </g>
    <g id="text_16">
     <!-- y -->
     <g transform="translate(16.444375 176.165) rotate(-90) scale(0.14 -0.14)">
      <defs>
       <path id="TimesNewRomanPS-BoldMT-79" d="M 1556 -119 
L 613 2047 
Q 400 2538 298 2650 
Q 197 2763 53 2806 
L 53 2922 
L 1606 2922 
L 1606 2806 
Q 1453 2800 1390 2747 
Q 1328 2694 1328 2619 
Q 1328 2500 1484 2150 
L 1984 1006 
L 2325 1891 
Q 2509 2363 2509 2547 
Q 2509 2663 2432 2731 
Q 2356 2800 2163 2806 
L 2163 2922 
L 3141 2922 
L 3141 2806 
Q 2997 2791 2906 2695 
Q 2816 2600 2603 2047 
L 1769 -119 
Q 1453 -931 1300 -1119 
Q 1084 -1381 759 -1381 
Q 500 -1381 339 -1232 
Q 178 -1084 178 -875 
Q 178 -694 289 -575 
Q 400 -456 563 -456 
Q 719 -456 814 -556 
Q 909 -656 913 -866 
Q 916 -984 941 -1019 
Q 966 -1053 1013 -1053 
Q 1088 -1053 1172 -963 
Q 1297 -831 1466 -363 
L 1556 -119 
z
" transform="scale(0.015625)"/>
      </defs>
      <use xlink:href="#TimesNewRomanPS-BoldMT-79"/>
     </g>
    </g>
   </g>
   <g id="line2d_15">
    <path d="M 53.59304 295.046818 
L 396.147585 136.391089 
" clip-path="url(#pab6608dd30)" style="fill: none; stroke: #2f2f2f; stroke-width: 2; stroke-linecap: square"/>
   </g>
   <g id="patch_3">
    <path d="M 36.465313 307.285 
L 36.465313 38.045 
" style="fill: none; stroke: #000000; stroke-width: 0.8; stroke-linejoin: miter; stroke-linecap: square"/>
   </g>
   <g id="patch_4">
    <path d="M 413.275312 307.285 
L 413.275312 38.045 
" style="fill: none; stroke: #000000; stroke-width: 0.8; stroke-linejoin: miter; stroke-linecap: square"/>
   </g>
   <g id="patch_5">
    <path d="M 36.465313 307.285 
L 413.275313 307.285 
" style="fill: none; stroke: #000000; stroke-width: 0.8; stroke-linejoin: miter; stroke-linecap: square"/>
   </g>
   <g id="patch_6">
    <path d="M 36.465313 38.045 
L 413.275313 38.045 
" style="fill: none; stroke: #000000; stroke-width: 0.8; stroke-linejoin: miter; stroke-linecap: square"/>
   </g>
   <g id="text_17">
    <!-- Linear Regression -->
    <g transform="translate(162.710313 18.045) scale(0.16 -0.16)">
     <defs>
      <path id="TimesNewRomanPS-BoldMT-4c" d="M 4041 1488 
L 3881 0 
L 119 0 
L 119 116 
L 259 116 
Q 444 116 556 181 
Q 638 225 681 331 
Q 716 406 716 725 
L 716 3513 
Q 716 3838 681 3919 
Q 647 4000 542 4061 
Q 438 4122 259 4122 
L 119 4122 
L 119 4238 
L 2378 4238 
L 2378 4122 
L 2194 4122 
Q 2009 4122 1897 4056 
Q 1816 4013 1769 3906 
Q 1734 3831 1734 3513 
L 1734 813 
Q 1734 488 1771 398 
Q 1809 309 1919 266 
Q 1997 238 2297 238 
L 2650 238 
Q 2988 238 3213 356 
Q 3438 475 3602 731 
Q 3766 988 3913 1488 
L 4041 1488 
z
" transform="scale(0.015625)"/>
      <path id="TimesNewRomanPS-BoldMT-69" d="M 919 4338 
Q 1122 4338 1262 4195 
Q 1403 4053 1403 3853 
Q 1403 3653 1261 3512 
Q 1119 3372 919 3372 
Q 719 3372 578 3512 
Q 438 3653 438 3853 
Q 438 4053 578 4195 
Q 719 4338 919 4338 
z
M 1356 2922 
L 1356 606 
Q 1356 297 1428 211 
Q 1500 125 1709 113 
L 1709 0 
L 131 0 
L 131 113 
Q 325 119 419 225 
Q 481 297 481 606 
L 481 2313 
Q 481 2622 409 2708 
Q 338 2794 131 2806 
L 131 2922 
L 1356 2922 
z
" transform="scale(0.015625)"/>
      <path id="TimesNewRomanPS-BoldMT-6e" d="M 1409 2922 
L 1409 2544 
Q 1634 2788 1840 2898 
Q 2047 3009 2284 3009 
Q 2569 3009 2756 2851 
Q 2944 2694 3006 2459 
Q 3056 2281 3056 1775 
L 3056 638 
Q 3056 300 3117 217 
Q 3178 134 3372 113 
L 3372 0 
L 1894 0 
L 1894 113 
Q 2059 134 2131 250 
Q 2181 328 2181 638 
L 2181 1938 
Q 2181 2297 2153 2390 
Q 2125 2484 2058 2536 
Q 1991 2588 1909 2588 
Q 1641 2588 1409 2203 
L 1409 638 
Q 1409 309 1470 221 
Q 1531 134 1697 113 
L 1697 0 
L 219 0 
L 219 113 
Q 403 131 481 231 
Q 534 300 534 638 
L 534 2288 
Q 534 2619 473 2700 
Q 413 2781 219 2806 
L 219 2922 
L 1409 2922 
z
" transform="scale(0.015625)"/>
      <path id="TimesNewRomanPS-BoldMT-65" d="M 2691 1566 
L 1088 1566 
Q 1116 984 1397 647 
Q 1613 388 1916 388 
Q 2103 388 2256 492 
Q 2409 597 2584 869 
L 2691 800 
Q 2453 316 2165 114 
Q 1878 -88 1500 -88 
Q 850 -88 516 413 
Q 247 816 247 1413 
Q 247 2144 642 2576 
Q 1038 3009 1569 3009 
Q 2013 3009 2339 2645 
Q 2666 2281 2691 1566 
z
M 1922 1775 
Q 1922 2278 1867 2465 
Q 1813 2653 1697 2750 
Q 1631 2806 1522 2806 
Q 1359 2806 1256 2647 
Q 1072 2369 1072 1884 
L 1072 1775 
L 1922 1775 
z
" transform="scale(0.015625)"/>
      <path id="TimesNewRomanPS-BoldMT-61" d="M 1828 431 
Q 1294 -41 869 -41 
Q 619 -41 453 123 
Q 288 288 288 534 
Q 288 869 575 1136 
Q 863 1403 1828 1847 
L 1828 2141 
Q 1828 2472 1792 2558 
Q 1756 2644 1656 2708 
Q 1556 2772 1431 2772 
Q 1228 2772 1097 2681 
Q 1016 2625 1016 2550 
Q 1016 2484 1103 2388 
Q 1222 2253 1222 2128 
Q 1222 1975 1108 1867 
Q 994 1759 809 1759 
Q 613 1759 480 1878 
Q 347 1997 347 2156 
Q 347 2381 525 2586 
Q 703 2791 1022 2900 
Q 1341 3009 1684 3009 
Q 2100 3009 2342 2832 
Q 2584 2656 2656 2450 
Q 2700 2319 2700 1847 
L 2700 713 
Q 2700 513 2715 461 
Q 2731 409 2762 384 
Q 2794 359 2834 359 
Q 2916 359 3000 475 
L 3094 400 
Q 2938 169 2770 64 
Q 2603 -41 2391 -41 
Q 2141 -41 2000 76 
Q 1859 194 1828 431 
z
M 1828 659 
L 1828 1638 
Q 1450 1416 1266 1163 
Q 1144 994 1144 822 
Q 1144 678 1247 569 
Q 1325 484 1466 484 
Q 1622 484 1828 659 
z
" transform="scale(0.015625)"/>
      <path id="TimesNewRomanPS-BoldMT-72" d="M 1428 2922 
L 1428 2259 
Q 1719 2713 1937 2861 
Q 2156 3009 2359 3009 
Q 2534 3009 2639 2901 
Q 2744 2794 2744 2597 
Q 2744 2388 2642 2272 
Q 2541 2156 2397 2156 
Q 2231 2156 2109 2262 
Q 1988 2369 1966 2381 
Q 1934 2400 1894 2400 
Q 1803 2400 1722 2331 
Q 1594 2225 1528 2028 
Q 1428 1725 1428 1359 
L 1428 688 
L 1431 513 
Q 1431 334 1453 284 
Q 1491 200 1564 161 
Q 1638 122 1813 113 
L 1813 0 
L 234 0 
L 234 113 
Q 425 128 492 217 
Q 559 306 559 688 
L 559 2303 
Q 559 2553 534 2622 
Q 503 2709 443 2750 
Q 384 2791 234 2806 
L 234 2922 
L 1428 2922 
z
" transform="scale(0.015625)"/>
      <path id="TimesNewRomanPS-BoldMT-20" transform="scale(0.015625)"/>
      <path id="TimesNewRomanPS-BoldMT-52" d="M 1700 1931 
L 1700 744 
Q 1700 400 1742 311 
Q 1784 222 1890 169 
Q 1997 116 2288 116 
L 2288 0 
L 119 0 
L 119 116 
Q 413 116 517 170 
Q 622 225 664 312 
Q 706 400 706 744 
L 706 3494 
Q 706 3838 664 3927 
Q 622 4016 515 4069 
Q 409 4122 119 4122 
L 119 4238 
L 2088 4238 
Q 2856 4238 3212 4131 
Q 3569 4025 3794 3739 
Q 4019 3453 4019 3069 
Q 4019 2600 3681 2294 
Q 3466 2100 3078 2003 
L 4097 569 
Q 4297 291 4381 222 
Q 4509 125 4678 116 
L 4678 0 
L 3344 0 
L 1978 1931 
L 1700 1931 
z
M 1700 4009 
L 1700 2153 
L 1878 2153 
Q 2313 2153 2528 2233 
Q 2744 2313 2867 2520 
Q 2991 2728 2991 3063 
Q 2991 3547 2764 3778 
Q 2538 4009 2034 4009 
L 1700 4009 
z
" transform="scale(0.015625)"/>
      <path id="TimesNewRomanPS-BoldMT-67" d="M 2091 2888 
L 3075 2888 
L 3075 2544 
L 2516 2544 
Q 2669 2391 2728 2266 
Q 2803 2097 2803 1913 
Q 2803 1600 2629 1370 
Q 2456 1141 2157 1011 
Q 1859 881 1628 881 
Q 1609 881 1253 897 
Q 1113 897 1017 805 
Q 922 713 922 584 
Q 922 472 1008 400 
Q 1094 328 1288 328 
L 1828 334 
Q 2484 334 2731 191 
Q 3084 -9 3084 -425 
Q 3084 -691 2921 -908 
Q 2759 -1125 2494 -1228 
Q 2091 -1381 1566 -1381 
Q 1172 -1381 847 -1304 
Q 522 -1228 381 -1092 
Q 241 -956 241 -806 
Q 241 -663 348 -548 
Q 456 -434 750 -356 
Q 344 -156 344 200 
Q 344 416 509 619 
Q 675 822 1034 972 
Q 616 1125 428 1375 
Q 241 1625 241 1953 
Q 241 2381 591 2695 
Q 941 3009 1491 3009 
Q 1781 3009 2091 2888 
z
M 1550 2816 
Q 1369 2816 1244 2633 
Q 1119 2450 1119 1875 
Q 1119 1409 1242 1236 
Q 1366 1063 1534 1063 
Q 1722 1063 1847 1234 
Q 1972 1406 1972 1903 
Q 1972 2463 1831 2666 
Q 1731 2816 1550 2816 
z
M 1366 -431 
Q 1047 -431 944 -484 
Q 766 -581 766 -747 
Q 766 -906 950 -1036 
Q 1134 -1166 1644 -1166 
Q 2078 -1166 2326 -1050 
Q 2575 -934 2575 -725 
Q 2575 -647 2528 -594 
Q 2444 -500 2273 -465 
Q 2103 -431 1366 -431 
z
" transform="scale(0.015625)"/>
      <path id="TimesNewRomanPS-BoldMT-73" d="M 2063 3003 
L 2109 2006 
L 2003 2006 
Q 1813 2450 1608 2612 
Q 1403 2775 1200 2775 
Q 1072 2775 981 2689 
Q 891 2603 891 2491 
Q 891 2406 953 2328 
Q 1053 2200 1512 1889 
Q 1972 1578 2117 1361 
Q 2263 1144 2263 875 
Q 2263 631 2141 397 
Q 2019 163 1797 37 
Q 1575 -88 1306 -88 
Q 1097 -88 747 44 
Q 653 78 619 78 
Q 516 78 447 -78 
L 344 -78 
L 294 972 
L 400 972 
Q 541 559 786 353 
Q 1031 147 1250 147 
Q 1400 147 1495 239 
Q 1591 331 1591 463 
Q 1591 613 1497 722 
Q 1403 831 1078 1053 
Q 600 1384 459 1559 
Q 253 1816 253 2125 
Q 253 2463 486 2736 
Q 719 3009 1159 3009 
Q 1397 3009 1619 2894 
Q 1703 2847 1756 2847 
Q 1813 2847 1847 2870 
Q 1881 2894 1956 3003 
L 2063 3003 
z
" transform="scale(0.015625)"/>
      <path id="TimesNewRomanPS-BoldMT-6f" d="M 1594 3009 
Q 1975 3009 2303 2812 
Q 2631 2616 2801 2253 
Q 2972 1891 2972 1459 
Q 2972 838 2656 419 
Q 2275 -88 1603 -88 
Q 944 -88 587 375 
Q 231 838 231 1447 
Q 231 2075 595 2542 
Q 959 3009 1594 3009 
z
M 1606 2788 
Q 1447 2788 1333 2667 
Q 1219 2547 1183 2192 
Q 1147 1838 1147 1206 
Q 1147 872 1191 581 
Q 1225 359 1337 243 
Q 1450 128 1594 128 
Q 1734 128 1828 206 
Q 1950 313 1991 503 
Q 2053 800 2053 1703 
Q 2053 2234 1993 2432 
Q 1934 2631 1819 2722 
Q 1738 2788 1606 2788 
z
" transform="scale(0.015625)"/>
     </defs>
     <use xlink:href="#TimesNewRomanPS-BoldMT-4c"/>
     <use xlink:href="#TimesNewRomanPS-BoldMT-69" transform="translate(66.699219 0)"/>
     <use xlink:href="#TimesNewRomanPS-BoldMT-6e" transform="translate(94.482422 0)"/>
     <use xlink:href="#TimesNewRomanPS-BoldMT-65" transform="translate(150.097656 0)"/>
     <use xlink:href="#TimesNewRomanPS-BoldMT-61" transform="translate(194.482422 0)"/>
     <use xlink:href="#TimesNewRomanPS-BoldMT-72" transform="translate(244.482422 0)"/>
     <use xlink:href="#TimesNewRomanPS-BoldMT-20" transform="translate(287.117188 0)"/>
     <use xlink:href="#TimesNewRomanPS-BoldMT-52" transform="translate(312.117188 0)"/>
     <use xlink:href="#TimesNewRomanPS-BoldMT-65" transform="translate(384.333984 0)"/>
     <use xlink:href="#TimesNewRomanPS-BoldMT-67" transform="translate(428.71875 0)"/>
     <use xlink:href="#TimesNewRomanPS-BoldMT-72" transform="translate(478.71875 0)"/>
     <use xlink:href="#TimesNewRomanPS-BoldMT-65" transform="translate(521.353516 0)"/>
     <use xlink:href="#TimesNewRomanPS-BoldMT-73" transform="translate(565.738281 0)"/>
     <use xlink:href="#TimesNewRomanPS-BoldMT-73" transform="translate(604.654297 0)"/>
     <use xlink:href="#TimesNewRomanPS-BoldMT-69" transform="translate(643.570312 0)"/>
     <use xlink:href="#TimesNewRomanPS-BoldMT-6f" transform="translate(671.353516 0)"/>
     <use xlink:href="#TimesNewRomanPS-BoldMT-6e" transform="translate(721.353516 0)"/>
    </g>
   </g>
  </g>
 </g>
 <defs>
  <clipPath id="pab6608dd30">
   <rect x="36.465313" y="38.045" width="376.81" height="269.24"/>
  </clipPath>
 </defs>
</svg>
