<?xml version="1.0" encoding="utf-8" standalone="no"?>
<!DOCTYPE svg PUBLIC "-//W3C//DTD SVG 1.1//EN"
  "http://www.w3.org/Graphics/SVG/1.1/DTD/svg11.dtd">
<svg xmlns:xlink="http://www.w3.org/1999/xlink" width="420.475312pt" height="348.399688pt" viewBox="0 0 420.475312 348.399688" xmlns="http://www.w3.org/2000/svg" version="1.1">
 <metadata>
  <rdf:RDF xmlns:dc="http://purl.org/dc/elements/1.1/" xmlns:cc="http://creativecommons.org/ns#" xmlns:rdf="http://www.w3.org/1999/02/22-rdf-syntax-ns#">
   <cc:Work>
    <dc:type rdf:resource="http://purl.org/dc/dcmitype/StillImage"/>
    <dc:date>2025-11-05T23:33:41.199059</dc:date>
    <dc:format>image/svg+xml</dc:format>
    <dc:creator>
     <cc:Agent>
      <dc:title>Matplotlib v3.10.7, https://matplotlib.org/</dc:title>
     </cc:Agent>
    </dc:creator>
   </cc:Work>
  </rdf:RDF>
 </metadata>
 <defs>
  <style type="text/css">*{stroke-linejoin: round; stroke-linecap: butt}</style>
 </defs>
 <g id="figure_1">
  <g id="patch_1">
   <path d="M 0 348.399688 
L 420.475312 348.399688 
L 420.475312 0 
L 0 0 
z
" style="fill: #ffffff"/>
  </g>
  <g id="axes_1">
   <g id="patch_2">
    <path d="M 36.465313 307.035 
L 413.275312 307.035 
L 413.275312 37.795 
L 36.465313 37.795 
z
" style="fill: #ffffff"/>
   </g>
   <g id="PathCollection_1">
    <defs>
     <path id="m27038a3068" d="M 0 3 
C 0.795609 3 1.55874 2.683901 2.12132 2.12132 
C 2.683901 1.55874 3 0.795609 3 0 
C 3 -0.795609 2.683901 -1.55874 2.12132 -2.12132 
C 1.55874 -2.683901 0.795609 -3 0 -3 
C -0.795609 -3 -1.55874 -2.683901 -2.12132 -2.12132 
C -2.683901 -1.55874 -3 -0.795609 -3 0 
C -3 0.795609 -2.683901 1.55874 -2.12132 2.12132 
C -1.55874 2.683901 -0.795609 3 0 3 
z
" style="stroke: #2f2f2f; stroke-opacity: 0.85; stroke-width: 0.6"/>
    </defs>
    <g clip-path="url(#pc78ec9a939)">
     <use xlink:href="#m27038a3068" x="360.228077" y="135.38871" style="fill: #4c72b0; fill-opacity: 0.85; stroke: #2f2f2f; stroke-opacity: 0.85; stroke-width: 0.6"/>
     <use xlink:href="#m27038a3068" x="263.352013" y="247.777626" style="fill: #4c72b0; fill-opacity: 0.85; stroke: #2f2f2f; stroke-opacity: 0.85; stroke-width: 0.6"/>
     <use xlink:href="#m27038a3068" x="304.448008" y="215.830732" style="fill: #4c72b0; fill-opacity: 0.85; stroke: #2f2f2f; stroke-opacity: 0.85; stroke-width: 0.6"/>
     <use xlink:href="#m27038a3068" x="394.097581" y="71.201321" style="fill: #4c72b0; fill-opacity: 0.85; stroke: #2f2f2f; stroke-opacity: 0.85; stroke-width: 0.6"/>
     <use xlink:href="#m27038a3068" x="367.579973" y="112.664177" style="fill: #4c72b0; fill-opacity: 0.85; stroke: #2f2f2f; stroke-opacity: 0.85; stroke-width: 0.6"/>
     <use xlink:href="#m27038a3068" x="165.514223" y="274.838132" style="fill: #4c72b0; fill-opacity: 0.85; stroke: #2f2f2f; stroke-opacity: 0.85; stroke-width: 0.6"/>
     <use xlink:href="#m27038a3068" x="302.413059" y="212.201686" style="fill: #4c72b0; fill-opacity: 0.85; stroke: #2f2f2f; stroke-opacity: 0.85; stroke-width: 0.6"/>
     <use xlink:href="#m27038a3068" x="224.178514" y="271.704041" style="fill: #4c72b0; fill-opacity: 0.85; stroke: #2f2f2f; stroke-opacity: 0.85; stroke-width: 0.6"/>
     <use xlink:href="#m27038a3068" x="227.597731" y="280.225286" style="fill: #4c72b0; fill-opacity: 0.85; stroke: #2f2f2f; stroke-opacity: 0.85; stroke-width: 0.6"/>
     <use xlink:href="#m27038a3068" x="264.093648" y="255.102534" style="fill: #4c72b0; fill-opacity: 0.85; stroke: #2f2f2f; stroke-opacity: 0.85; stroke-width: 0.6"/>
     <use xlink:href="#m27038a3068" x="245.160525" y="271.658255" style="fill: #4c72b0; fill-opacity: 0.85; stroke: #2f2f2f; stroke-opacity: 0.85; stroke-width: 0.6"/>
     <use xlink:href="#m27038a3068" x="338.2248" y="166.95235" style="fill: #4c72b0; fill-opacity: 0.85; stroke: #2f2f2f; stroke-opacity: 0.85; stroke-width: 0.6"/>
     <use xlink:href="#m27038a3068" x="288.984981" y="236.684624" style="fill: #4c72b0; fill-opacity: 0.85; stroke: #2f2f2f; stroke-opacity: 0.85; stroke-width: 0.6"/>
     <use xlink:href="#m27038a3068" x="243.57171" y="283.730399" style="fill: #4c72b0; fill-opacity: 0.85; stroke: #2f2f2f; stroke-opacity: 0.85; stroke-width: 0.6"/>
     <use xlink:href="#m27038a3068" x="266.456407" y="247.477386" style="fill: #4c72b0; fill-opacity: 0.85; stroke: #2f2f2f; stroke-opacity: 0.85; stroke-width: 0.6"/>
     <use xlink:href="#m27038a3068" x="258.629803" y="259.733801" style="fill: #4c72b0; fill-opacity: 0.85; stroke: #2f2f2f; stroke-opacity: 0.85; stroke-width: 0.6"/>
     <use xlink:href="#m27038a3068" x="341.052154" y="175.870493" style="fill: #4c72b0; fill-opacity: 0.85; stroke: #2f2f2f; stroke-opacity: 0.85; stroke-width: 0.6"/>
     <use xlink:href="#m27038a3068" x="220.35708" y="271.398594" style="fill: #4c72b0; fill-opacity: 0.85; stroke: #2f2f2f; stroke-opacity: 0.85; stroke-width: 0.6"/>
     <use xlink:href="#m27038a3068" x="257.166135" y="266.148993" style="fill: #4c72b0; fill-opacity: 0.85; stroke: #2f2f2f; stroke-opacity: 0.85; stroke-width: 0.6"/>
     <use xlink:href="#m27038a3068" x="174.263721" y="280.432169" style="fill: #4c72b0; fill-opacity: 0.85; stroke: #2f2f2f; stroke-opacity: 0.85; stroke-width: 0.6"/>
     <use xlink:href="#m27038a3068" x="53.59304" y="180.276284" style="fill: #4c72b0; fill-opacity: 0.85; stroke: #2f2f2f; stroke-opacity: 0.85; stroke-width: 0.6"/>
     <use xlink:href="#m27038a3068" x="281.355111" y="234.528758" style="fill: #4c72b0; fill-opacity: 0.85; stroke: #2f2f2f; stroke-opacity: 0.85; stroke-width: 0.6"/>
     <use xlink:href="#m27038a3068" x="296.32927" y="207.990211" style="fill: #4c72b0; fill-opacity: 0.85; stroke: #2f2f2f; stroke-opacity: 0.85; stroke-width: 0.6"/>
     <use xlink:href="#m27038a3068" x="182.214045" y="294.796818" style="fill: #4c72b0; fill-opacity: 0.85; stroke: #2f2f2f; stroke-opacity: 0.85; stroke-width: 0.6"/>
     <use xlink:href="#m27038a3068" x="396.147585" y="50.033182" style="fill: #4c72b0; fill-opacity: 0.85; stroke: #2f2f2f; stroke-opacity: 0.85; stroke-width: 0.6"/>
     <use xlink:href="#m27038a3068" x="131.627166" y="272.759648" style="fill: #4c72b0; fill-opacity: 0.85; stroke: #2f2f2f; stroke-opacity: 0.85; stroke-width: 0.6"/>
     <use xlink:href="#m27038a3068" x="238.17944" y="277.704556" style="fill: #4c72b0; fill-opacity: 0.85; stroke: #2f2f2f; stroke-opacity: 0.85; stroke-width: 0.6"/>
     <use xlink:href="#m27038a3068" x="221.633784" y="281.951265" style="fill: #4c72b0; fill-opacity: 0.85; stroke: #2f2f2f; stroke-opacity: 0.85; stroke-width: 0.6"/>
     <use xlink:href="#m27038a3068" x="343.800982" y="157.491631" style="fill: #4c72b0; fill-opacity: 0.85; stroke: #2f2f2f; stroke-opacity: 0.85; stroke-width: 0.6"/>
     <use xlink:href="#m27038a3068" x="339.296296" y="160.867273" style="fill: #4c72b0; fill-opacity: 0.85; stroke: #2f2f2f; stroke-opacity: 0.85; stroke-width: 0.6"/>
     <use xlink:href="#m27038a3068" x="245.935015" y="276.390972" style="fill: #4c72b0; fill-opacity: 0.85; stroke: #2f2f2f; stroke-opacity: 0.85; stroke-width: 0.6"/>
     <use xlink:href="#m27038a3068" x="261.789753" y="243.576909" style="fill: #4c72b0; fill-opacity: 0.85; stroke: #2f2f2f; stroke-opacity: 0.85; stroke-width: 0.6"/>
     <use xlink:href="#m27038a3068" x="171.870757" y="275.700144" style="fill: #4c72b0; fill-opacity: 0.85; stroke: #2f2f2f; stroke-opacity: 0.85; stroke-width: 0.6"/>
     <use xlink:href="#m27038a3068" x="94.235336" y="252.54089" style="fill: #4c72b0; fill-opacity: 0.85; stroke: #2f2f2f; stroke-opacity: 0.85; stroke-width: 0.6"/>
     <use xlink:href="#m27038a3068" x="210.217419" y="263.510546" style="fill: #4c72b0; fill-opacity: 0.85; stroke: #2f2f2f; stroke-opacity: 0.85; stroke-width: 0.6"/>
     <use xlink:href="#m27038a3068" x="246.034566" y="244.006906" style="fill: #4c72b0; fill-opacity: 0.85; stroke: #2f2f2f; stroke-opacity: 0.85; stroke-width: 0.6"/>
     <use xlink:href="#m27038a3068" x="322.315532" y="174.465659" style="fill: #4c72b0; fill-opacity: 0.85; stroke: #2f2f2f; stroke-opacity: 0.85; stroke-width: 0.6"/>
     <use xlink:href="#m27038a3068" x="320.333055" y="191.587821" style="fill: #4c72b0; fill-opacity: 0.85; stroke: #2f2f2f; stroke-opacity: 0.85; stroke-width: 0.6"/>
     <use xlink:href="#m27038a3068" x="207.417837" y="291.154824" style="fill: #4c72b0; fill-opacity: 0.85; stroke: #2f2f2f; stroke-opacity: 0.85; stroke-width: 0.6"/>
     <use xlink:href="#m27038a3068" x="213.457008" y="267.268786" style="fill: #4c72b0; fill-opacity: 0.85; stroke: #2f2f2f; stroke-opacity: 0.85; stroke-width: 0.6"/>
     <use xlink:href="#m27038a3068" x="160.451625" y="282.315506" style="fill: #4c72b0; fill-opacity: 0.85; stroke: #2f2f2f; stroke-opacity: 0.85; stroke-width: 0.6"/>
     <use xlink:href="#m27038a3068" x="134.066853" y="254.017216" style="fill: #4c72b0; fill-opacity: 0.85; stroke: #2f2f2f; stroke-opacity: 0.85; stroke-width: 0.6"/>
     <use xlink:href="#m27038a3068" x="113.734651" y="251.177495" style="fill: #4c72b0; fill-opacity: 0.85; stroke: #2f2f2f; stroke-opacity: 0.85; stroke-width: 0.6"/>
     <use xlink:href="#m27038a3068" x="373.490818" y="90.736295" style="fill: #4c72b0; fill-opacity: 0.85; stroke: #2f2f2f; stroke-opacity: 0.85; stroke-width: 0.6"/>
     <use xlink:href="#m27038a3068" x="198.729191" y="277.494178" style="fill: #4c72b0; fill-opacity: 0.85; stroke: #2f2f2f; stroke-opacity: 0.85; stroke-width: 0.6"/>
     <use xlink:href="#m27038a3068" x="203.813296" y="273.067512" style="fill: #4c72b0; fill-opacity: 0.85; stroke: #2f2f2f; stroke-opacity: 0.85; stroke-width: 0.6"/>
     <use xlink:href="#m27038a3068" x="145.944502" y="272.727943" style="fill: #4c72b0; fill-opacity: 0.85; stroke: #2f2f2f; stroke-opacity: 0.85; stroke-width: 0.6"/>
     <use xlink:href="#m27038a3068" x="290.153597" y="207.992813" style="fill: #4c72b0; fill-opacity: 0.85; stroke: #2f2f2f; stroke-opacity: 0.85; stroke-width: 0.6"/>
     <use xlink:href="#m27038a3068" x="120.295768" y="256.881618" style="fill: #4c72b0; fill-opacity: 0.85; stroke: #2f2f2f; stroke-opacity: 0.85; stroke-width: 0.6"/>
     <use xlink:href="#m27038a3068" x="219.818537" y="272.223778" style="fill: #4c72b0; fill-opacity: 0.85; stroke: #2f2f2f; stroke-opacity: 0.85; stroke-width: 0.6"/>
    </g>
   </g>
   <g id="matplotlib.axis_1">
    <g id="xtick_1">
     <g id="line2d_1">
      <defs>
       <path id="m367f045c8d" d="M 0 0 
L 0 3.5 
" style="stroke: #000000; stroke-width: 0.8"/>
      </defs>
      <g>
       <use xlink:href="#m367f045c8d" x="92.871328" y="307.035" style="stroke: #000000; stroke-width: 0.8"/>
      </g>
     </g>
     <g id="text_1">
      <!-- −2 -->
      <g transform="translate(86.48789 322.3675) scale(0.12 -0.12)">
       <defs>
        <path id="TimesNewRomanPSMT-2212" d="M 3484 2000 
L 116 2000 
L 116 2256 
L 3484 2256 
L 3484 2000 
z
" transform="scale(0.015625)"/>
        <path id="TimesNewRomanPSMT-32" d="M 2934 816 
L 2638 0 
L 138 0 
L 138 116 
Q 1241 1122 1691 1759 
Q 2141 2397 2141 2925 
Q 2141 3328 1894 3587 
Q 1647 3847 1303 3847 
Q 991 3847 742 3664 
Q 494 3481 375 3128 
L 259 3128 
Q 338 3706 661 4015 
Q 984 4325 1469 4325 
Q 1984 4325 2329 3994 
Q 2675 3663 2675 3213 
Q 2675 2891 2525 2569 
Q 2294 2063 1775 1497 
Q 997 647 803 472 
L 1909 472 
Q 2247 472 2383 497 
Q 2519 522 2628 598 
Q 2738 675 2819 816 
L 2934 816 
z
" transform="scale(0.015625)"/>
       </defs>
       <use xlink:href="#TimesNewRomanPSMT-2212"/>
       <use xlink:href="#TimesNewRomanPSMT-32" transform="translate(56.396484 0)"/>
      </g>
     </g>
    </g>
    <g id="xtick_2">
     <g id="line2d_2">
      <g>
       <use xlink:href="#m367f045c8d" x="163.900294" y="307.035" style="stroke: #000000; stroke-width: 0.8"/>
      </g>
     </g>
     <g id="text_2">
      <!-- −1 -->
      <g transform="translate(157.516856 322.3675) scale(0.12 -0.12)">
       <defs>
        <path id="TimesNewRomanPSMT-31" d="M 750 3822 
L 1781 4325 
L 1884 4325 
L 1884 747 
Q 1884 391 1914 303 
Q 1944 216 2037 169 
Q 2131 122 2419 116 
L 2419 0 
L 825 0 
L 825 116 
Q 1125 122 1212 167 
Q 1300 213 1334 289 
Q 1369 366 1369 747 
L 1369 3034 
Q 1369 3497 1338 3628 
Q 1316 3728 1258 3775 
Q 1200 3822 1119 3822 
Q 1003 3822 797 3725 
L 750 3822 
z
" transform="scale(0.015625)"/>
       </defs>
       <use xlink:href="#TimesNewRomanPSMT-2212"/>
       <use xlink:href="#TimesNewRomanPSMT-31" transform="translate(56.396484 0)"/>
      </g>
     </g>
    </g>
    <g id="xtick_3">
     <g id="line2d_3">
      <g>
       <use xlink:href="#m367f045c8d" x="234.92926" y="307.035" style="stroke: #000000; stroke-width: 0.8"/>
      </g>
     </g>
     <g id="text_3">
      <!-- 0 -->
      <g transform="translate(231.92926 322.3675) scale(0.12 -0.12)">
       <defs>
        <path id="TimesNewRomanPSMT-30" d="M 231 2094 
Q 231 2819 450 3342 
Q 669 3866 1031 4122 
Q 1313 4325 1613 4325 
Q 2100 4325 2488 3828 
Q 2972 3213 2972 2159 
Q 2972 1422 2759 906 
Q 2547 391 2217 158 
Q 1888 -75 1581 -75 
Q 975 -75 572 641 
Q 231 1244 231 2094 
z
M 844 2016 
Q 844 1141 1059 588 
Q 1238 122 1591 122 
Q 1759 122 1940 273 
Q 2122 425 2216 781 
Q 2359 1319 2359 2297 
Q 2359 3022 2209 3506 
Q 2097 3866 1919 4016 
Q 1791 4119 1609 4119 
Q 1397 4119 1231 3928 
Q 1006 3669 925 3112 
Q 844 2556 844 2016 
z
" transform="scale(0.015625)"/>
       </defs>
       <use xlink:href="#TimesNewRomanPSMT-30"/>
      </g>
     </g>
    </g>
    <g id="xtick_4">
     <g id="line2d_4">
      <g>
       <use xlink:href="#m367f045c8d" x="305.958226" y="307.035" style="stroke: #000000; stroke-width: 0.8"/>
      </g>
     </g>
     <g id="text_4">
      <!-- 1 -->
      <g transform="translate(302.958226 322.3675) scale(0.12 -0.12)">
       <use xlink:href="#TimesNewRomanPSMT-31"/>
      </g>
     </g>
    </g>
    <g id="xtick_5">
     <g id="line2d_5">
      <g>
       <use xlink:href="#m367f045c8d" x="376.987192" y="307.035" style="stroke: #000000; stroke-width: 0.8"/>
      </g>
     </g>
     <g id="text_5">
      <!-- 2 -->
      <g transform="translate(373.987192 322.3675) scale(0.12 -0.12)">
       <use xlink:href="#TimesNewRomanPSMT-32"/>
      </g>
     </g>
    </g>
    <g id="text_6">
     <!-- x -->
     <g transform="translate(221.370313 338.205) scale(0.14 -0.14)">
      <defs>
       <path id="TimesNewRomanPS-BoldMT-78" d="M 1944 1791 
L 2450 828 
Q 2713 325 2866 191 
Q 2950 119 3097 113 
L 3097 0 
L 1469 0 
L 1469 113 
Q 1659 128 1704 162 
Q 1750 197 1750 256 
Q 1750 344 1650 531 
L 1397 1006 
L 1181 691 
Q 1034 475 1016 434 
Q 991 375 991 328 
Q 991 256 1020 207 
Q 1050 159 1101 136 
Q 1153 113 1291 113 
L 1291 0 
L 147 0 
L 147 113 
Q 359 113 536 230 
Q 713 347 1050 844 
L 1291 1200 
L 788 2131 
Q 541 2588 419 2691 
Q 297 2794 147 2806 
L 147 2922 
L 1766 2922 
L 1766 2806 
L 1681 2803 
L 1519 2747 
Q 1494 2725 1494 2675 
Q 1494 2628 1509 2578 
Q 1519 2556 1597 2409 
L 1825 1984 
L 1944 2153 
Q 2194 2497 2194 2634 
Q 2194 2700 2139 2745 
Q 2084 2791 1944 2806 
L 1944 2922 
L 2978 2922 
L 2978 2806 
Q 2788 2800 2622 2689 
Q 2456 2578 2250 2259 
L 1944 1791 
z
" transform="scale(0.015625)"/>
      </defs>
      <use xlink:href="#TimesNewRomanPS-BoldMT-78"/>
     </g>
    </g>
   </g>
   <g id="matplotlib.axis_2">
    <g id="ytick_1">
     <g id="line2d_6">
      <defs>
       <path id="mc65d059a1b" d="M 0 0 
L -3.5 0 
" style="stroke: #000000; stroke-width: 0.8"/>
      </defs>
      <g>
       <use xlink:href="#mc65d059a1b" x="36.465313" y="305.373759" style="stroke: #000000; stroke-width: 0.8"/>
      </g>
     </g>
     <g id="text_7">
      <!-- 1 -->
      <g transform="translate(23.465313 309.540009) scale(0.12 -0.12)">
       <use xlink:href="#TimesNewRomanPSMT-31"/>
      </g>
     </g>
    </g>
    <g id="ytick_2">
     <g id="line2d_7">
      <g>
       <use xlink:href="#mc65d059a1b" x="36.465313" y="270.175232" style="stroke: #000000; stroke-width: 0.8"/>
      </g>
     </g>
     <g id="text_8">
      <!-- 2 -->
      <g transform="translate(23.465313 274.341482) scale(0.12 -0.12)">
       <use xlink:href="#TimesNewRomanPSMT-32"/>
      </g>
     </g>
    </g>
    <g id="ytick_3">
     <g id="line2d_8">
      <g>
       <use xlink:href="#mc65d059a1b" x="36.465313" y="234.976705" style="stroke: #000000; stroke-width: 0.8"/>
      </g>
     </g>
     <g id="text_9">
      <!-- 3 -->
      <g transform="translate(23.465313 239.142955) scale(0.12 -0.12)">
       <defs>
        <path id="TimesNewRomanPSMT-33" d="M 325 3431 
Q 506 3859 782 4092 
Q 1059 4325 1472 4325 
Q 1981 4325 2253 3994 
Q 2459 3747 2459 3466 
Q 2459 3003 1878 2509 
Q 2269 2356 2469 2072 
Q 2669 1788 2669 1403 
Q 2669 853 2319 450 
Q 1863 -75 997 -75 
Q 569 -75 414 31 
Q 259 138 259 259 
Q 259 350 332 419 
Q 406 488 509 488 
Q 588 488 669 463 
Q 722 447 909 348 
Q 1097 250 1169 231 
Q 1284 197 1416 197 
Q 1734 197 1970 444 
Q 2206 691 2206 1028 
Q 2206 1275 2097 1509 
Q 2016 1684 1919 1775 
Q 1784 1900 1550 2001 
Q 1316 2103 1072 2103 
L 972 2103 
L 972 2197 
Q 1219 2228 1467 2375 
Q 1716 2522 1828 2728 
Q 1941 2934 1941 3181 
Q 1941 3503 1739 3701 
Q 1538 3900 1238 3900 
Q 753 3900 428 3381 
L 325 3431 
z
" transform="scale(0.015625)"/>
       </defs>
       <use xlink:href="#TimesNewRomanPSMT-33"/>
      </g>
     </g>
    </g>
    <g id="ytick_4">
     <g id="line2d_9">
      <g>
       <use xlink:href="#mc65d059a1b" x="36.465313" y="199.778178" style="stroke: #000000; stroke-width: 0.8"/>
      </g>
     </g>
     <g id="text_10">
      <!-- 4 -->
      <g transform="translate(23.465313 203.944428) scale(0.12 -0.12)">
       <defs>
        <path id="TimesNewRomanPSMT-34" d="M 2978 1563 
L 2978 1119 
L 2409 1119 
L 2409 0 
L 1894 0 
L 1894 1119 
L 100 1119 
L 100 1519 
L 2066 4325 
L 2409 4325 
L 2409 1563 
L 2978 1563 
z
M 1894 1563 
L 1894 3666 
L 406 1563 
L 1894 1563 
z
" transform="scale(0.015625)"/>
       </defs>
       <use xlink:href="#TimesNewRomanPSMT-34"/>
      </g>
     </g>
    </g>
    <g id="ytick_5">
     <g id="line2d_10">
      <g>
       <use xlink:href="#mc65d059a1b" x="36.465313" y="164.579651" style="stroke: #000000; stroke-width: 0.8"/>
      </g>
     </g>
     <g id="text_11">
      <!-- 5 -->
      <g transform="translate(23.465313 168.745901) scale(0.12 -0.12)">
       <defs>
        <path id="TimesNewRomanPSMT-35" d="M 2778 4238 
L 2534 3706 
L 1259 3706 
L 981 3138 
Q 1809 3016 2294 2522 
Q 2709 2097 2709 1522 
Q 2709 1188 2573 903 
Q 2438 619 2231 419 
Q 2025 219 1772 97 
Q 1413 -75 1034 -75 
Q 653 -75 479 54 
Q 306 184 306 341 
Q 306 428 378 495 
Q 450 563 559 563 
Q 641 563 702 538 
Q 763 513 909 409 
Q 1144 247 1384 247 
Q 1750 247 2026 523 
Q 2303 800 2303 1197 
Q 2303 1581 2056 1914 
Q 1809 2247 1375 2428 
Q 1034 2569 447 2591 
L 1259 4238 
L 2778 4238 
z
" transform="scale(0.015625)"/>
       </defs>
       <use xlink:href="#TimesNewRomanPSMT-35"/>
      </g>
     </g>
    </g>
    <g id="ytick_6">
     <g id="line2d_11">
      <g>
       <use xlink:href="#mc65d059a1b" x="36.465313" y="129.381124" style="stroke: #000000; stroke-width: 0.8"/>
      </g>
     </g>
     <g id="text_12">
      <!-- 6 -->
      <g transform="translate(23.465313 133.547374) scale(0.12 -0.12)">
       <defs>
        <path id="TimesNewRomanPSMT-36" d="M 2869 4325 
L 2869 4209 
Q 2456 4169 2195 4045 
Q 1934 3922 1679 3669 
Q 1425 3416 1258 3105 
Q 1091 2794 978 2366 
Q 1428 2675 1881 2675 
Q 2316 2675 2634 2325 
Q 2953 1975 2953 1425 
Q 2953 894 2631 456 
Q 2244 -75 1606 -75 
Q 1172 -75 869 213 
Q 275 772 275 1663 
Q 275 2231 503 2743 
Q 731 3256 1154 3653 
Q 1578 4050 1965 4187 
Q 2353 4325 2688 4325 
L 2869 4325 
z
M 925 2138 
Q 869 1716 869 1456 
Q 869 1156 980 804 
Q 1091 453 1309 247 
Q 1469 100 1697 100 
Q 1969 100 2183 356 
Q 2397 613 2397 1088 
Q 2397 1622 2184 2012 
Q 1972 2403 1581 2403 
Q 1463 2403 1327 2353 
Q 1191 2303 925 2138 
z
" transform="scale(0.015625)"/>
       </defs>
       <use xlink:href="#TimesNewRomanPSMT-36"/>
      </g>
     </g>
    </g>
    <g id="ytick_7">
     <g id="line2d_12">
      <g>
       <use xlink:href="#mc65d059a1b" x="36.465313" y="94.182597" style="stroke: #000000; stroke-width: 0.8"/>
      </g>
     </g>
     <g id="text_13">
      <!-- 7 -->
      <g transform="translate(23.465313 98.348847) scale(0.12 -0.12)">
       <defs>
        <path id="TimesNewRomanPSMT-37" d="M 644 4238 
L 2916 4238 
L 2916 4119 
L 1503 -88 
L 1153 -88 
L 2419 3728 
L 1253 3728 
Q 900 3728 750 3644 
Q 488 3500 328 3200 
L 238 3234 
L 644 4238 
z
" transform="scale(0.015625)"/>
       </defs>
       <use xlink:href="#TimesNewRomanPSMT-37"/>
      </g>
     </g>
    </g>
    <g id="ytick_8">
     <g id="line2d_13">
      <g>
       <use xlink:href="#mc65d059a1b" x="36.465313" y="58.984071" style="stroke: #000000; stroke-width: 0.8"/>
      </g>
     </g>
     <g id="text_14">
      <!-- 8 -->
      <g transform="translate(23.465313 63.150321) scale(0.12 -0.12)">
       <defs>
        <path id="TimesNewRomanPSMT-38" d="M 1228 2134 
Q 725 2547 579 2797 
Q 434 3047 434 3316 
Q 434 3728 753 4026 
Q 1072 4325 1600 4325 
Q 2113 4325 2425 4047 
Q 2738 3769 2738 3413 
Q 2738 3175 2569 2928 
Q 2400 2681 1866 2347 
Q 2416 1922 2594 1678 
Q 2831 1359 2831 1006 
Q 2831 559 2490 242 
Q 2150 -75 1597 -75 
Q 994 -75 656 303 
Q 388 606 388 966 
Q 388 1247 577 1523 
Q 766 1800 1228 2134 
z
M 1719 2469 
Q 2094 2806 2194 3001 
Q 2294 3197 2294 3444 
Q 2294 3772 2109 3958 
Q 1925 4144 1606 4144 
Q 1288 4144 1088 3959 
Q 888 3775 888 3528 
Q 888 3366 970 3203 
Q 1053 3041 1206 2894 
L 1719 2469 
z
M 1375 2016 
Q 1116 1797 991 1539 
Q 866 1281 866 981 
Q 866 578 1086 336 
Q 1306 94 1647 94 
Q 1984 94 2187 284 
Q 2391 475 2391 747 
Q 2391 972 2272 1150 
Q 2050 1481 1375 2016 
z
" transform="scale(0.015625)"/>
       </defs>
       <use xlink:href="#TimesNewRomanPSMT-38"/>
      </g>
     </g>
    </g>
    <g id="text_15">
     <!-- y -->
     <g transform="translate(16.444375 175.915) rotate(-90) scale(0.14 -0.14)">
      <defs>
       <path id="TimesNewRomanPS-BoldMT-79" d="M 1556 -119 
L 613 2047 
Q 400 2538 298 2650 
Q 197 2763 53 2806 
L 53 2922 
L 1606 2922 
L 1606 2806 
Q 1453 2800 1390 2747 
Q 1328 2694 1328 2619 
Q 1328 2500 1484 2150 
L 1984 1006 
L 2325 1891 
Q 2509 2363 2509 2547 
Q 2509 2663 2432 2731 
Q 2356 2800 2163 2806 
L 2163 2922 
L 3141 2922 
L 3141 2806 
Q 2997 2791 2906 2695 
Q 2816 2600 2603 2047 
L 1769 -119 
Q 1453 -931 1300 -1119 
Q 1084 -1381 759 -1381 
Q 500 -1381 339 -1232 
Q 178 -1084 178 -875 
Q 178 -694 289 -575 
Q 400 -456 563 -456 
Q 719 -456 814 -556 
Q 909 -656 913 -866 
Q 916 -984 941 -1019 
Q 966 -1053 1013 -1053 
Q 1088 -1053 1172 -963 
Q 1297 -831 1466 -363 
L 1556 -119 
z
" transform="scale(0.015625)"/>
      </defs>
      <use xlink:href="#TimesNewRomanPS-BoldMT-79"/>
     </g>
    </g>
   </g>
   <g id="patch_3">
    <path d="M 36.465313 307.035 
L 36.465313 37.795 
" style="fill: none; stroke: #000000; stroke-width: 0.8; stroke-linejoin: miter; stroke-linecap: square"/>
   </g>
   <g id="patch_4">
    <path d="M 413.275312 307.035 
L 413.275312 37.795 
" style="fill: none; stroke: #000000; stroke-width: 0.8; stroke-linejoin: miter; stroke-linecap: square"/>
   </g>
   <g id="patch_5">
    <path d="M 36.465313 307.035 
L 413.275313 307.035 
" style="fill: none; stroke: #000000; stroke-width: 0.8; stroke-linejoin: miter; stroke-linecap: square"/>
   </g>
   <g id="patch_6">
    <path d="M 36.465313 37.795 
L 413.275313 37.795 
" style="fill: none; stroke: #000000; stroke-width: 0.8; stroke-linejoin: miter; stroke-linecap: square"/>
   </g>
   <g id="text_16">
    <!-- Toy Data -->
    <g transform="translate(193.822812 17.795) scale(0.16 -0.16)">
     <defs>
      <path id="TimesNewRomanPS-BoldMT-54" d="M 4038 4238 
L 4038 3091 
L 3925 3091 
Q 3825 3488 3703 3661 
Q 3581 3834 3369 3938 
Q 3250 3994 2953 3994 
L 2638 3994 
L 2638 725 
Q 2638 400 2673 319 
Q 2709 238 2814 177 
Q 2919 116 3100 116 
L 3241 116 
L 3241 0 
L 1022 0 
L 1022 116 
L 1163 116 
Q 1347 116 1459 181 
Q 1541 225 1588 331 
Q 1622 406 1622 725 
L 1622 3994 
L 1316 3994 
Q 888 3994 694 3813 
Q 422 3559 350 3091 
L 231 3091 
L 231 4238 
L 4038 4238 
z
" transform="scale(0.015625)"/>
      <path id="TimesNewRomanPS-BoldMT-6f" d="M 1594 3009 
Q 1975 3009 2303 2812 
Q 2631 2616 2801 2253 
Q 2972 1891 2972 1459 
Q 2972 838 2656 419 
Q 2275 -88 1603 -88 
Q 944 -88 587 375 
Q 231 838 231 1447 
Q 231 2075 595 2542 
Q 959 3009 1594 3009 
z
M 1606 2788 
Q 1447 2788 1333 2667 
Q 1219 2547 1183 2192 
Q 1147 1838 1147 1206 
Q 1147 872 1191 581 
Q 1225 359 1337 243 
Q 1450 128 1594 128 
Q 1734 128 1828 206 
Q 1950 313 1991 503 
Q 2053 800 2053 1703 
Q 2053 2234 1993 2432 
Q 1934 2631 1819 2722 
Q 1738 2788 1606 2788 
z
" transform="scale(0.015625)"/>
      <path id="TimesNewRomanPS-BoldMT-20" transform="scale(0.015625)"/>
      <path id="TimesNewRomanPS-BoldMT-44" d="M 84 0 
L 84 116 
L 225 116 
Q 409 116 507 173 
Q 606 231 653 331 
Q 681 397 681 725 
L 681 3513 
Q 681 3838 647 3919 
Q 613 4000 508 4061 
Q 403 4122 225 4122 
L 84 4122 
L 84 4238 
L 1981 4238 
Q 2741 4238 3203 4031 
Q 3769 3778 4061 3265 
Q 4353 2753 4353 2106 
Q 4353 1659 4209 1282 
Q 4066 906 3837 661 
Q 3609 416 3311 267 
Q 3013 119 2581 38 
Q 2391 0 1981 0 
L 84 0 
z
M 1700 3997 
L 1700 691 
Q 1700 428 1725 368 
Q 1750 309 1809 278 
Q 1894 231 2053 231 
Q 2575 231 2850 588 
Q 3225 1069 3225 2081 
Q 3225 2897 2969 3384 
Q 2766 3766 2447 3903 
Q 2222 4000 1700 3997 
z
" transform="scale(0.015625)"/>
      <path id="TimesNewRomanPS-BoldMT-61" d="M 1828 431 
Q 1294 -41 869 -41 
Q 619 -41 453 123 
Q 288 288 288 534 
Q 288 869 575 1136 
Q 863 1403 1828 1847 
L 1828 2141 
Q 1828 2472 1792 2558 
Q 1756 2644 1656 2708 
Q 1556 2772 1431 2772 
Q 1228 2772 1097 2681 
Q 1016 2625 1016 2550 
Q 1016 2484 1103 2388 
Q 1222 2253 1222 2128 
Q 1222 1975 1108 1867 
Q 994 1759 809 1759 
Q 613 1759 480 1878 
Q 347 1997 347 2156 
Q 347 2381 525 2586 
Q 703 2791 1022 2900 
Q 1341 3009 1684 3009 
Q 2100 3009 2342 2832 
Q 2584 2656 2656 2450 
Q 2700 2319 2700 1847 
L 2700 713 
Q 2700 513 2715 461 
Q 2731 409 2762 384 
Q 2794 359 2834 359 
Q 2916 359 3000 475 
L 3094 400 
Q 2938 169 2770 64 
Q 2603 -41 2391 -41 
Q 2141 -41 2000 76 
Q 1859 194 1828 431 
z
M 1828 659 
L 1828 1638 
Q 1450 1416 1266 1163 
Q 1144 994 1144 822 
Q 1144 678 1247 569 
Q 1325 484 1466 484 
Q 1622 484 1828 659 
z
" transform="scale(0.015625)"/>
      <path id="TimesNewRomanPS-BoldMT-74" d="M 1375 3991 
L 1375 2922 
L 2069 2922 
L 2069 2613 
L 1375 2613 
L 1375 809 
Q 1375 556 1398 482 
Q 1422 409 1481 364 
Q 1541 319 1591 319 
Q 1794 319 1975 628 
L 2069 559 
Q 1816 -41 1247 -41 
Q 969 -41 776 114 
Q 584 269 531 459 
Q 500 566 500 1034 
L 500 2613 
L 119 2613 
L 119 2722 
Q 513 3000 789 3306 
Q 1066 3613 1272 3991 
L 1375 3991 
z
" transform="scale(0.015625)"/>
     </defs>
     <use xlink:href="#TimesNewRomanPS-BoldMT-54"/>
     <use xlink:href="#TimesNewRomanPS-BoldMT-6f" transform="translate(57.574219 0)"/>
     <use xlink:href="#TimesNewRomanPS-BoldMT-79" transform="translate(107.574219 0)"/>
     <use xlink:href="#TimesNewRomanPS-BoldMT-20" transform="translate(157.574219 0)"/>
     <use xlink:href="#TimesNewRomanPS-BoldMT-44" transform="translate(182.574219 0)"/>
     <use xlink:href="#TimesNewRomanPS-BoldMT-61" transform="translate(254.791016 0)"/>
     <use xlink:href="#TimesNewRomanPS-BoldMT-74" transform="translate(304.791016 0)"/>
     <use xlink:href="#TimesNewRomanPS-BoldMT-61" transform="translate(338.091797 0)"/>
    </g>
   </g>
  </g>
 </g>
 <defs>
  <clipPath id="pc78ec9a939">
   <rect x="36.465313" y="37.795" width="376.81" height="269.24"/>
  </clipPath>
 </defs>
</svg>
